<?xml version="1.0" standalone="no"?>
<!DOCTYPE svg PUBLIC "-//W3C//DTD SVG 20010904//EN"
 "http://www.w3.org/TR/2001/REC-SVG-20010904/DTD/svg10.dtd">
<svg version="1.0" xmlns="http://www.w3.org/2000/svg"
 width="254.000000pt" height="240.000000pt" viewBox="0 0 254.000000 240.000000"
 preserveAspectRatio="xMidYMid meet">

<g transform="translate(0.000000,240.000000) scale(0.100000,-0.100000)"
fill="#000000" stroke="none">
<path d="M1120 2155 c-8 -2 -49 -9 -90 -15 -41 -7 -79 -16 -85 -20 -5 -4 -28
-13 -50 -19 -48 -15 -137 -57 -185 -88 -33 -22 -45 -31 -114 -85 -68 -55 -194
-191 -220 -239 -53 -95 -86 -162 -86 -170 0 -6 -9 -29 -20 -52 -27 -55 -50
-207 -50 -332 0 -105 24 -283 40 -299 6 -6 10 -18 10 -29 0 -11 4 -15 12 -11
6 4 8 3 4 -4 -3 -6 5 -36 19 -68 14 -31 25 -62 25 -68 0 -18 90 -150 116 -169
13 -10 24 -23 24 -29 0 -16 163 -161 220 -196 14 -8 36 -23 50 -32 14 -9 37
-21 50 -25 14 -4 32 -13 40 -20 8 -6 44 -20 80 -30 36 -9 70 -21 75 -25 15
-11 181 -30 267 -30 82 0 237 18 253 29 6 4 42 16 80 26 39 10 75 22 81 26 6
5 42 25 80 46 93 49 225 160 304 256 92 112 144 203 175 307 9 30 21 64 25 75
37 89 37 447 0 530 -4 11 -16 46 -26 78 -9 32 -30 82 -45 110 -16 29 -33 61
-38 73 -15 33 -145 191 -188 226 -21 18 -48 42 -60 53 -53 49 -136 103 -171
111 -15 4 -34 13 -42 20 -9 7 -36 20 -60 29 -25 8 -54 19 -65 25 -55 26 -356
50 -435 35z"/>
</g>
</svg>
