<?xml version="1.0" standalone="no"?>
<!DOCTYPE svg PUBLIC "-//W3C//DTD SVG 20010904//EN"
 "http://www.w3.org/TR/2001/REC-SVG-20010904/DTD/svg10.dtd">
<svg version="1.0" xmlns="http://www.w3.org/2000/svg"
 width="254.000000pt" height="240.000000pt" viewBox="0 0 254.000000 240.000000"
 preserveAspectRatio="xMidYMid meet">

<g transform="translate(0.000000,240.000000) scale(0.100000,-0.100000)"
fill="#000000" stroke="none">
<path d="M1146 2128 c-60 -4 -112 -11 -115 -15 -3 -5 -13 -9 -21 -10 -161 -20
-398 -172 -539 -345 -72 -89 -118 -158 -104 -158 4 0 3 -4 -3 -8 -21 -13 -75
-149 -88 -222 -2 -8 -6 -22 -10 -31 -4 -10 -6 -23 -5 -30 1 -8 -1 -22 -6 -32
-10 -24 -2 -348 10 -367 5 -8 10 -19 10 -25 1 -30 42 -141 77 -212 41 -82 112
-180 189 -260 109 -113 294 -223 425 -253 27 -6 58 -16 69 -22 24 -14 336 -24
362 -13 10 5 29 9 43 11 46 4 151 34 206 59 30 14 59 25 64 25 6 0 10 5 10 10
0 6 7 10 15 10 8 0 24 9 34 19 11 11 21 17 23 15 3 -2 42 27 88 64 84 66 234
237 224 254 -3 4 -1 8 4 8 12 0 82 138 82 162 0 10 4 18 9 18 5 0 14 24 21 52
6 29 17 64 23 77 8 16 12 83 11 200 -1 204 -1 210 -13 236 -5 11 -14 42 -21
69 -54 232 -273 495 -513 614 -71 35 -182 76 -212 77 -5 0 -16 4 -22 8 -22 14
-214 22 -327 15z"/>
</g>
</svg>
